<svg xmlns="http://www.w3.org/2000/svg" width="35" height="39.079" viewBox="0 0 35 39.079">
  <g id="Group_23662" data-name="Group 23662" transform="translate(0)">
    <path id="Path_20391" data-name="Path 20391" d="M35,12.38a5.776,5.776,0,0,0-.14-1.372,4.513,4.513,0,0,0-2.234-2.939q-3.053-1.74-6.092-3.506c-1.247-.72-2.488-1.45-3.733-2.172-.955-.554-1.9-1.121-2.873-1.649A6.561,6.561,0,0,0,18.5.137,4.569,4.569,0,0,0,14.89.8c-1.247.739-2.5,1.461-3.76,2.186C8.271,4.634,5.4,6.275,2.553,7.941A6.568,6.568,0,0,0,1.2,8.957,4.277,4.277,0,0,0,0,12.13c.014,2.471,0,4.942,0,7.413H0c0,2.375-.008,4.75.006,7.125a6.31,6.31,0,0,0,.15,1.571A4.48,4.48,0,0,0,2.34,30.988c1.11.651,2.231,1.28,3.347,1.922q1.8,1.034,3.593,2.072c2.038,1.175,4.067,2.365,6.117,3.518a4.05,4.05,0,0,0,4.2-.017c1.822-1.03,3.632-2.08,5.445-3.125,2.52-1.453,5.047-2.894,7.553-4.372a4.5,4.5,0,0,0,2.4-4.068q.013-7.269,0-14.538M20.433,30.345c-.9.453-1.811.881-2.719,1.315a2.5,2.5,0,0,1-.237.087,1.673,1.673,0,0,1-.23-.072q-1.374-.661-2.745-1.328c-.165-.08-.372-.173-.311-.389a.684.684,0,0,1,.31-.393c.894-.441,1.8-.855,2.7-1.282a.584.584,0,0,1,.547.01c.889.429,1.789.837,2.673,1.275a.586.586,0,0,1,.317.386.577.577,0,0,1-.307.391M28.4,16.716c-.705.707-1.426,1.4-2.138,2.1-.644.633-1.285,1.271-1.93,1.9a1.285,1.285,0,0,0-.367,1.214q.349,2,.7,4c.082.473.161.946.231,1.421a1.246,1.246,0,0,1-.445,1.24,1.2,1.2,0,0,1-1.3.2c-.863-.418-1.711-.869-2.562-1.313-.8-.417-1.6-.835-2.39-1.269a1.571,1.571,0,0,0-1.591.045c-1.484.787-2.966,1.577-4.452,2.359a1.48,1.48,0,0,1-1.349.162,1.354,1.354,0,0,1-.788-1.362c.069-.357.179-.873.267-1.392.24-1.43.48-2.859.7-4.292a1.12,1.12,0,0,0-.347-.972Q9.592,19.7,8.529,18.668c-.638-.625-1.265-1.263-1.926-1.863a1.333,1.333,0,0,1,.052-1.94,1.468,1.468,0,0,1,.593-.26q2.674-.421,5.353-.807a1.6,1.6,0,0,0,1.345-.974c.687-1.469,1.418-2.917,2.137-4.371a4.279,4.279,0,0,1,.364-.62,1.323,1.323,0,0,1,1.894-.177,1.265,1.265,0,0,1,.25.347c.832,1.644,1.666,3.287,2.482,4.939a1.442,1.442,0,0,0,1.151.846q1.794.269,3.587.537c.617.091,1.237.164,1.853.265a1.274,1.274,0,0,1,1.017.878,1.113,1.113,0,0,1-.276,1.248" transform="translate(0 0)" fill="#f70e36"/>
    <path id="Path_20392" data-name="Path 20392" d="M221.453,328.057l3.193-3.335h-6.356l3.162,3.335" transform="translate(-203.985 -303.441)" fill="#f70e36"/>
  </g>
</svg>