<svg xmlns="http://www.w3.org/2000/svg" width="201" height="56" viewBox="0 0 201 56">
  <g id="Group_23658" data-name="Group 23658" transform="translate(-255 -14.446)">
    <text id="Fenomen_Paket." data-name="Fenomen
Paket." transform="translate(318 39.446)" fill="#1a1d23" font-size="26" font-family="SamsungSharpSans, Samsung Sharp Sans"><tspan x="0" y="0">Fenomen</tspan><tspan font-family="SamsungSharpSans-Bold, Samsung Sharp Sans" font-weight="700"><tspan x="0" y="24">Paket</tspan><tspan y="24" fill="#f70e36">.</tspan></tspan></text>
    <g id="Group_23649" data-name="Group 23649" transform="translate(255 16.585)">
      <path id="Path_20391" data-name="Path 20391" d="M46.39,16.41a7.657,7.657,0,0,0-.186-1.819,5.983,5.983,0,0,0-2.962-3.9q-4.047-2.307-8.075-4.647c-1.653-.955-3.3-1.922-4.949-2.88-1.266-.735-2.524-1.485-3.809-2.185a8.7,8.7,0,0,0-1.887-.8,6.056,6.056,0,0,0-4.784.875c-1.653.98-3.32,1.936-4.984,2.9-3.791,2.19-7.591,4.365-11.371,6.574a8.706,8.706,0,0,0-1.79,1.346A5.669,5.669,0,0,0,0,16.08c.019,3.276.006,6.551.006,9.827H0c0,3.148-.011,6.3.009,9.444a8.365,8.365,0,0,0,.2,2.082A5.938,5.938,0,0,0,3.1,41.077c1.471.862,2.958,1.7,4.436,2.547q2.383,1.37,4.763,2.746c2.7,1.557,5.391,3.135,8.109,4.663a5.368,5.368,0,0,0,5.57-.022c2.415-1.366,4.815-2.757,7.218-4.143,3.34-1.926,6.691-3.836,10.012-5.8a5.971,5.971,0,0,0,3.176-5.393q.017-9.635,0-19.271m-19.3,23.815c-1.192.6-2.4,1.168-3.6,1.744a3.32,3.32,0,0,1-.314.115,2.218,2.218,0,0,1-.3-.1q-1.821-.876-3.639-1.76c-.219-.106-.492-.23-.413-.516a.907.907,0,0,1,.411-.521c1.185-.585,2.389-1.133,3.583-1.7a.774.774,0,0,1,.725.014c1.179.568,2.371,1.11,3.543,1.69a.777.777,0,0,1,.42.512.765.765,0,0,1-.408.518M37.653,22.159c-.935.937-1.89,1.854-2.834,2.782-.854.839-1.7,1.684-2.558,2.523a1.7,1.7,0,0,0-.486,1.609q.463,2.651.925,5.3c.109.627.213,1.254.307,1.883a1.652,1.652,0,0,1-.589,1.643,1.587,1.587,0,0,1-1.724.261c-1.145-.554-2.268-1.152-3.4-1.741-1.06-.553-2.12-1.107-3.168-1.683a2.082,2.082,0,0,0-2.109.059c-1.967,1.043-3.932,2.09-5.9,3.127a1.961,1.961,0,0,1-1.788.215,1.8,1.8,0,0,1-1.044-1.805c.091-.473.238-1.157.354-1.845.318-1.895.636-3.79.927-5.69a1.484,1.484,0,0,0-.461-1.288q-1.39-1.391-2.8-2.764c-.846-.829-1.677-1.674-2.553-2.47a1.767,1.767,0,0,1,.069-2.572,1.946,1.946,0,0,1,.786-.344q3.544-.558,7.1-1.07A2.126,2.126,0,0,0,18.486,17c.911-1.947,1.88-3.866,2.833-5.794a5.673,5.673,0,0,1,.483-.822,1.754,1.754,0,0,1,2.511-.235,1.676,1.676,0,0,1,.331.461c1.1,2.179,2.209,4.357,3.289,6.547a1.911,1.911,0,0,0,1.526,1.121q2.378.357,4.755.712c.818.121,1.64.217,2.456.351a1.688,1.688,0,0,1,1.348,1.164,1.476,1.476,0,0,1-.366,1.654" transform="translate(0 0)" fill="#f70e36"/>
      <path id="Path_20392" data-name="Path 20392" d="M222.483,329.143l4.233-4.421h-8.425l4.192,4.421" transform="translate(-199.327 -296.512)" fill="#f70e36"/>
    </g>
  </g>
</svg>